HIERARCHY
ROOT hip
{
  OFFSET 0 0 0
  CHANNELS 6 Xposition Yposition Zposition Zrotation Yrotation Xrotation
  JOINT abdomen
  {
    OFFSET 0 20.6881 -0.73152
    CHANNELS 3 Zrotation Xrotation Yrotation
    JOINT chest
    {
      OFFSET 0 11.7043 -0.48768
      CHANNELS 3 Zrotation Xrotation Yrotation
      JOINT neck
      {
        OFFSET 0 22.1894 -2.19456
        CHANNELS 3 Zrotation Xrotation Yrotation
        JOINT head
        {
          OFFSET -0.24384 7.07133 1.2192
          CHANNELS 3 Zrotation Xrotation Yrotation
          JOINT leftEye
          {
            OFFSET 4.14528 8.04674 8.04672
            CHANNELS 3 Zrotation Xrotation Yrotation
            End Site
            {
              OFFSET 1 0 0
            }
          }
          JOINT rightEye
          {
            OFFSET -3.6576 8.04674 8.04672
            CHANNELS 3 Zrotation Xrotation Yrotation
            End Site
            {
              OFFSET 1 0 0
            }
          }
        }
      }
      JOINT rCollar
      {
        OFFSET -2.68224 19.2634 -4.8768
        CHANNELS 3 Zrotation Xrotation Yrotation
        JOINT rShldr
        {
          OFFSET -8.77824 -1.95073 1.46304
          CHANNELS 3 Zrotation Xrotation Yrotation
          JOINT rForeArm
          {
            OFFSET -28.1742 -1.7115 0.48768
            CHANNELS 3 Zrotation Xrotation Yrotation
            JOINT rHand
            {
              OFFSET -22.5879 0.773209 7.07136
              CHANNELS 3 Zrotation Xrotation Yrotation
              JOINT rThumb1
              {
                OFFSET -1.2192 -0.487915 3.41376
                CHANNELS 3 Zrotation Xrotation Yrotation
                JOINT rThumb2
                {
                  OFFSET -3.37035 -0.52449 3.41376
                  CHANNELS 3 Zrotation Xrotation Yrotation
                  End Site
                  {
                    OFFSET -1.78271 -1.18214 1.43049
                  }
                }
              }
              JOINT rIndex1
              {
                OFFSET -7.75947 0.938293 5.60832
                CHANNELS 3 Zrotation Xrotation Yrotation
                JOINT rIndex2
                {
                  OFFSET -2.54057 -0.884171 1.56538
                  CHANNELS 3 Zrotation Xrotation Yrotation
                  End Site
                  {
                    OFFSET -1.62519 -0.234802 1.16502
                  }
                }
              }
              JOINT rMid1
              {
                OFFSET -8.24714 1.18213 3.41376
                CHANNELS 3 Zrotation Xrotation Yrotation
                JOINT rMid2
                {
                  OFFSET -3.10165 -0.590103 1.0647
                  CHANNELS 3 Zrotation Xrotation Yrotation
                  End Site
                  {
                    OFFSET -2.48547 -0.328903 0.83742
                  }
                }
              }
              JOINT rRing1
              {
                OFFSET -8.82822 0.546677 1.51678
                CHANNELS 3 Zrotation Xrotation Yrotation
                JOINT rRing2
                {
                  OFFSET -2.60934 -0.819778 -0.0198488
                  CHANNELS 3 Zrotation Xrotation Yrotation
                  End Site
                  {
                    OFFSET -2.33842 -0.294052 0.168128
                  }
                }
              }
              JOINT rPinky1
              {
                OFFSET -8.27202 -0.0477905 -0.4584
                CHANNELS 3 Zrotation Xrotation Yrotation
                JOINT rPinky2
                {
                  OFFSET -1.82734 -0.647385 -0.700984
                  CHANNELS 3 Zrotation Xrotation Yrotation
                  End Site
                  {
                    OFFSET -1.69225 -0.51767 -0.607171
                  }
                }
              }
            }
          }
        }
      }
      JOINT lCollar
      {
        OFFSET 2.68224 19.2634 -4.8768
        CHANNELS 3 Zrotation Xrotation Yrotation
        JOINT lShldr
        {
          OFFSET 8.77824 -1.95073 1.46304
          CHANNELS 3 Zrotation Xrotation Yrotation
          JOINT lForeArm
          {
            OFFSET 28.1742 -1.7115 0.48768
            CHANNELS 3 Zrotation Xrotation Yrotation
            JOINT lHand
            {
              OFFSET 22.5879 0.773209 7.07136
              CHANNELS 3 Zrotation Xrotation Yrotation
              JOINT lThumb1
              {
                OFFSET 1.2192 -0.487915 3.41376
                CHANNELS 3 Zrotation Xrotation Yrotation
                JOINT lThumb2
                {
                  OFFSET 3.37035 -0.52449 3.41376
                  CHANNELS 3 Zrotation Xrotation Yrotation
                  End Site
                  {
                    OFFSET 1.78271 -1.18214 1.43049
                  }
                }
              }
              JOINT lIndex1
              {
                OFFSET 7.75947 0.938293 5.60832
                CHANNELS 3 Zrotation Xrotation Yrotation
                JOINT lIndex2
                {
                  OFFSET 2.54057 -0.884171 1.56538
                  CHANNELS 3 Zrotation Xrotation Yrotation
                  End Site
                  {
                    OFFSET 1.62519 -0.234802 1.16502
                  }
                }
              }
              JOINT lMid1
              {
                OFFSET 8.24714 1.18213 3.41376
                CHANNELS 3 Zrotation Xrotation Yrotation
                JOINT lMid2
                {
                  OFFSET 3.10165 -0.590103 1.0647
                  CHANNELS 3 Zrotation Xrotation Yrotation
                  End Site
                  {
                    OFFSET 2.48547 -0.328903 0.83742
                  }
                }
              }
              JOINT lRing1
              {
                OFFSET 8.82822 0.546677 1.51678
                CHANNELS 3 Zrotation Xrotation Yrotation
                JOINT lRing2
                {
                  OFFSET 2.60934 -0.819778 -0.0198488
                  CHANNELS 3 Zrotation Xrotation Yrotation
                  End Site
                  {
                    OFFSET 2.33842 -0.294052 0.168128
                  }
                }
              }
              JOINT lPinky1
              {
                OFFSET 8.27202 -0.0477905 -0.4584
                CHANNELS 3 Zrotation Xrotation Yrotation
                JOINT lPinky2
                {
                  OFFSET 1.82734 -0.647385 -0.700984
                  CHANNELS 3 Zrotation Xrotation Yrotation
                  End Site
                  {
                    OFFSET 1.69225 -0.51767 -0.607171
                  }
                }
              }
            }
          }
        }
      }
    }
  }
  JOINT rButtock
  {
    OFFSET -8.77824 4.35084 1.2192
    CHANNELS 3 Zrotation Xrotation Yrotation
    JOINT rThigh
    {
      OFFSET 0 -1.70687 -2.19456
      CHANNELS 3 Zrotation Xrotation Yrotation
      JOINT rShin
      {
        OFFSET 0 -36.8199 0.73152
        CHANNELS 3 Zrotation Xrotation Yrotation
        JOINT rFoot
        {
          OFFSET 0.73152 -45.1104 -5.12064
          CHANNELS 3 Zrotation Xrotation Yrotation
          End Site
          {
            OFFSET -1.1221 -3.69964 12.103
          }
        }
      }
    }
  }
  JOINT lButtock
  {
    OFFSET 8.77824 4.35084 1.2192
    CHANNELS 3 Zrotation Xrotation Yrotation
    JOINT lThigh
    {
      OFFSET 0 -1.70687 -2.19456
      CHANNELS 3 Zrotation Xrotation Yrotation
      JOINT lShin
      {
        OFFSET 0 -36.8199 0.73152
        CHANNELS 3 Zrotation Xrotation Yrotation
        JOINT lFoot
        {
          OFFSET -0.73152 -45.1104 -5.12064
          CHANNELS 3 Zrotation Xrotation Yrotation
          End Site
          {
            OFFSET 1.1221 -3.69964 12.103
          }
        }
      }
    }
  }
}
MOTION
Frames:	8
Frame Time:	0.03333
-43.9229 85.0819 -56.3361 129.901848 28.470842 159.044462 -40.951707 20.23284 14.843325 10.550291 -11.665338 5.075972 -1.818206 28.90305 109.438381 -33.872214 22.142764 -76.85839 -151.094086 20.245224 69.419666 -65.921546 5.021069 -7.736552 1.452337 -2.303893 14.316113 -140.152698 0.66475 149.059537 93.191878 -4.571563 -118.383538 -157.640419 57.270502 132.0149 168.347044 -33.294603 82.141835 173.165089 -2.584361 127.04387 -140.309124 -25.473151 91.967306 11.213456 9.281755 50.819112 179.19625 -33.597285 119.805901 18.192936 -21.410688 38.709794 -22.95974 14.2206 -37.358129 150.358515 -32.11949 49.044445 -139.86705 -31.148088 -115.409745 -145.599777 17.452768 -135.629161 -7.482027 37.527987 11.714338 113.088545 3.542744 -150.364749 135.516106 44.328605 146.791142 -7.593437 -19.835382 2.740936 89.98767 38.531007 -44.61645 61.938817 -23.322271 -48.240932 42.124817 37.721203 -39.981045 -14.774783 -6.08364 66.088857 -135.541131 -56.602908 -117.117163 174.834968 -72.184197 167.62497 77.113244 53.384795 -99.345532 95.610101 -0.935165 -146.213506 -6.996918 3.848612 16.509964 160.108604 -6.793579 150.778365 -87.335984 -20.090443 -27.804369 33.961292 9.919436 104.34661 22.187233 -7.489477 -94.999198 128.265767 -51.787155 6.910627 -30.865642 15.42552 -34.890645 131.158304 10.380922 -80.401942 -54.666962 -30.774658 -125.349392 -69.738762 -41.960954 -171.246034
-47.1337 85.54129999999999 -58.3006 125.598219 32.474223 157.077922 -38.03614 19.19446 -0.0 9.911593 -9.257154 17.952367 -19.333665 20.020179 -44.396831 27.858697 -14.311989 78.276162 13.405556 11.476511 81.064383 -59.557223 11.060504 -19.207774 -143.01383 25.716776 139.331704 162.118734 -13.651002 -179.853216 17.578617 23.151701 73.782889 -13.784055 41.142621 3.024861 17.269231 -8.828934 6.700433 -26.521504 70.998218 27.263571 -14.627587 -1.296985 47.850831 -158.381536 53.858664 -172.6158 75.005808 -46.289139 50.248702 76.446435 -81.270633 105.675855 75.760077 83.064206 -75.115555 -113.465682 33.757337 67.236181 13.127205 47.047801 -19.108891 -41.767986 31.836875 47.701573 9.28002 -39.814039 35.795079 -44.206315 5.44716 28.247638 -168.118948 12.700811 -78.293029 -175.43096 9.923925 -137.667058 165.388273 11.106302 -84.647285 25.852737 -61.831083 -6.593704 94.954903 21.710975 -84.384465 -22.592479 72.153043 -32.42252 -1.893419 -57.097398 -20.118516 105.772077 -49.178917 129.149614 0.32268 -45.105117 -0.886913 -76.802676 40.914905 71.137609 159.326401 17.037553 138.282076 143.801883 -26.132522 130.301316 -29.69388 -21.511138 30.077264 -19.892572 6.857467 2.065328 25.263634 15.573766 74.527028 49.183312 47.57264 -139.660848 -15.704745 -8.546772 -23.005377 116.083717 -7.972927 93.884541 46.992409 41.456963 -78.797346 178.608114 -29.937214 -24.888826
-48.903999999999996 84.3292 -59.7291 124.256181 36.417099 156.315045 -31.130947 15.555142 -180.0 -4.858954 5.343591 -162.856178 -0.57447 32.544498 162.791729 -4.721006 42.401733 -132.707153 6.707226 4.105267 62.902322 -33.944508 8.688053 -27.953319 5.499569 -41.046522 2.886226 -59.100177 72.713254 110.20915 -62.109854 -31.689789 37.086459 9.183204 -21.548121 2.67303 -170.259251 -9.101965 77.402984 67.750057 -31.669771 105.457423 17.913562 -19.121946 45.900407 88.932173 43.520103 -102.953879 -134.558747 6.635956 107.491029 -25.410366 46.885114 80.290341 -137.79288 -36.792564 -151.700889 92.437497 50.43623 -92.335461 22.384563 42.005967 -31.832183 26.54261 -75.595075 71.693907 16.627703 -56.611772 42.986529 -50.625163 29.688084 40.583735 -0.230792 -25.163984 -70.085438 -5.97982 5.67992 8.960032 166.285876 18.213726 -79.857305 168.838571 6.932716 -61.104288 -93.84614 -49.949581 -49.445152 84.545658 70.651253 8.062717 117.869043 59.677579 -56.786402 -51.096939 -10.57936 -44.357583 154.073485 -60.330391 155.934323 160.188528 -16.783835 139.854004 167.085304 12.830145 142.255326 156.776834 -43.839143 123.158969 -90.638153 4.759383 -63.470206 46.818076 15.526457 -0.0 -18.048039 22.115926 -62.181423 24.619394 -80.219522 130.384108 -14.736881 -12.465873 -20.05111 126.450805 -13.665133 99.898434 80.9273 42.540757 -1.042285 -94.438416 75.123416 0.642088
-49.5338 81.7939 -60.9422 125.50597 40.308521 156.831492 -20.315714 21.138401 -69.738274 7.812052 -5.63259 89.389471 -9.220426 15.580366 -37.439863 16.852841 -17.722162 68.20894 -2.716942 -1.457524 56.416953 5.833538 -1.218813 -23.583372 -2.359223 -36.308387 -3.482343 45.997619 18.181047 14.776502 72.693429 27.649785 53.5399 -87.164188 74.741418 67.53107 15.392652 -8.191337 13.439858 122.675361 69.797261 -139.289271 89.611132 -34.934384 60.496569 -41.857903 1.969952 -68.176493 -140.583924 5.265834 116.714954 -62.707412 43.396141 96.487599 -144.476407 4.337571 -179.14193 176.11947 -33.669791 179.067383 -12.943097 10.916937 -39.235014 65.916474 -43.083473 64.827405 149.343829 -1.442435 -167.495242 -134.237393 -36.41641 -162.383734 125.551744 -78.814737 58.257585 -11.464204 -1.466339 5.627272 7.076104 -25.065225 -6.840705 -6.216172 25.466423 15.127532 88.354025 17.711193 -58.702945 136.756391 -66.811148 -84.97616 99.968751 62.96135 -31.844909 159.303237 -13.222806 -95.320639 138.830983 -63.897493 120.995878 -142.734557 42.56468 106.015715 -158.27277 74.754378 139.498982 -80.095007 -84.794784 -99.765731 -19.846651 78.084117 -180.0 127.061682 54.985248 -0.0 -13.551939 22.683964 92.70727 108.977001 -83.966187 10.470139 110.75527 84.505617 69.332012 -106.274819 -40.508428 144.354867 136.412977 -65.407307 57.850558 -95.436575 -38.349047 175.128164
-49.723 78.9795 -62.2488 127.715385 44.94752 157.655448 -15.713013 24.806903 6.126362 -4.401787 -10.790227 17.362362 2.499018 28.670908 -171.684115 16.356637 34.85815 -170.089727 -10.625622 -5.332994 53.20542 34.283753 -3.94984 -12.757942 -7.388143 -39.129504 -11.272635 51.72466 -2.987145 7.804188 -8.763308 55.052387 101.855846 -9.760161 19.284072 1.982821 9.446972 2.044957 10.622138 -135.994858 8.176471 -175.040272 -152.580332 -8.883692 86.128494 6.014776 -38.564775 55.924912 -1.907204 16.884269 13.418532 -87.347355 -82.714657 -103.821246 -60.511354 73.906084 80.390676 42.632397 -24.528119 13.519525 16.282225 17.345607 -47.975055 -108.825689 20.420777 141.973645 -9.073223 -17.83596 -1.130006 -165.828531 70.227624 107.692236 89.776542 -3.153918 60.188547 -75.991343 -60.788301 -55.414776 22.224295 -14.708789 -8.57464 -5.422934 34.772137 4.143088 44.374133 15.360437 -31.045703 -23.629239 64.967103 -2.459765 -137.81517 -64.007636 -157.197502 5.862442 4.417808 39.860349 111.59215 -61.475317 84.493131 73.993282 -22.463675 123.943879 1.327835 51.890268 0.527751 7.722297 33.281698 -68.406725 1.959048 -23.821254 2.273538 -44.633383 -16.789455 -16.951968 0.010756 32.674049 61.411579 179.488588 -68.336275 76.921491 166.352704 81.50465 13.792945 -105.250782 -45.953919 70.256923 116.924655 17.101799 -101.226913 -143.107368 -8.196685 14.499798
-50.0197 76.6583 -63.7522 130.040095 48.99993 158.008822 -9.462824 22.552506 -156.511042 8.212638 4.247777 -177.223341 13.320005 13.029878 91.343336 -21.063407 18.892702 -66.040592 -17.338912 -8.352431 51.177884 48.782837 -1.185697 -2.614535 -160.315793 31.770301 160.706553 154.953499 0.678301 175.458777 -39.612684 18.786371 116.711862 -2.130457 -18.515515 2.076544 84.106505 -45.425745 19.316497 -160.560301 42.156728 62.392064 3.054102 0.699797 20.205776 58.31334 76.717939 -43.004114 -14.21787 54.255016 11.601648 -7.715317 -15.596859 -1.777225 -69.923107 -67.107382 -86.906336 165.530782 21.199907 178.755469 -131.961892 22.281991 -87.31481 30.566808 8.26622 -46.652836 153.337284 -9.477232 -151.895013 -139.159522 7.404469 -157.17518 -135.852364 52.392829 -101.637846 179.475874 29.307767 -139.424556 -171.739764 0.801677 -73.622124 20.429089 -55.230089 -25.613309 95.461709 31.797176 -76.863528 -100.404093 -61.569305 -37.782282 -99.185017 -77.723514 -102.556372 -0.768712 -5.861356 23.336192 -170.127553 0.725071 168.650391 43.496797 13.561545 31.475826 87.976411 -39.814144 64.921235 125.387647 30.753794 103.420826 13.421633 -20.794175 -0.0 -51.884685 -29.514261 -180.0 -0.896609 -41.553968 156.781192 60.559187 -5.423118 0.365786 -164.460913 75.453731 -13.687372 -108.348102 -47.401986 -103.719504 -135.754607 -11.5618 163.809492 -130.012796 -39.992386 141.18383
-50.733700000000006 74.8525 -65.4763 130.693526 52.603735 157.012143 -7.284632 24.091248 -162.611373 8.145446 5.57732 -169.606851 -5.114687 17.017133 -116.207189 21.636381 10.473611 136.029897 -19.519978 -9.08949 49.604026 55.039867 5.501752 10.538109 -36.916479 -68.692199 -50.18056 55.348551 43.184989 -20.462065 141.296661 -15.592265 25.633743 -166.233548 17.618716 146.98787 48.111251 -32.794956 -10.87258 161.766218 -75.857537 133.686244 50.425957 -41.810952 1.075701 -56.623361 66.850601 21.964176 5.647243 59.455777 -12.50759 -168.745284 28.837433 117.593973 -3.800532 2.069893 -11.26682 -5.648617 5.014715 -35.420021 8.892733 -5.757795 -59.992502 6.974783 -13.1503 37.403912 -24.976951 -53.179659 -12.03782 -118.429818 41.683267 91.095819 -73.279944 -6.242566 -153.151181 51.213465 67.514018 -26.185782 -2.752092 -5.931727 -17.603911 128.158008 -9.105939 -131.899635 -42.996439 -57.617926 2.098066 -15.148718 8.972721 -8.968668 12.607768 -3.07357 -12.037765 20.412053 61.774415 -16.955353 111.936341 -65.609619 86.157917 124.261228 5.409779 131.996648 167.56225 12.970568 125.455306 94.366221 -24.005466 35.375433 -49.82532 48.333084 -76.53968 93.962909 -12.893374 -77.506933 -42.325974 -33.225744 -171.687687 -168.259706 -69.160442 95.814138 -152.744851 69.619844 -23.258249 -121.241443 -44.300774 -112.961011 -141.732708 -21.838423 157.742112 -29.172134 -16.722389 -129.85714
-51.6203 72.9817 -67.30420000000001 131.619417 55.582113 155.54737 -6.358746 31.275177 -8.226441 -4.138124 -15.095986 35.930585 -8.020692 7.494706 -55.010735 12.331578 -4.833383 77.331263 -9.442735 -4.466457 50.550792 48.88804 12.789634 27.701966 -13.833684 61.884832 6.841218 -123.298904 26.840095 116.085015 -4.900097 9.922784 -129.448146 179.251445 -32.693919 155.570474 -5.150492 46.208635 -3.154561 -15.677095 -0.466534 13.882587 4.654785 30.960563 13.03334 -166.186731 -6.812946 133.49364 19.713297 61.192711 -25.796453 179.125016 22.931307 114.430208 -118.759307 -43.933906 -129.911944 -12.061447 38.975738 41.80963 37.83919 1.142112 -44.528002 -154.695728 42.816272 176.404719 151.850045 3.153092 -145.210786 44.452105 -16.636992 -35.426514 158.421606 33.393316 95.633983 0.691441 -21.928288 6.916574 -5.592201 5.871379 -12.794594 112.372108 30.046641 -87.264725 36.285991 44.97909 -34.484899 58.009152 43.863847 -18.193322 -26.784938 -29.734827 -14.934371 -160.627363 -46.452354 -143.898207 -176.537978 15.681333 -179.740008 42.810264 5.910428 0.721075 -5.730666 44.885838 7.656502 -17.023856 0.377786 -62.660038 -47.463048 36.402903 -61.285813 84.212803 -30.40637 171.734432 54.987375 -21.752811 -62.111041 -100.866804 30.322364 20.219535 -2.866918 7.565765 4.037211 133.807844 -39.410311 -34.263363 -144.824475 -49.798432 58.365892 -174.231168 -31.118921 23.708824
